RobotoCondensed-BoldItalic.ufo
<glyph name="cent" format="1">
  <advance width="1032"/>
  <unicode hex="00A2"/>
  <outline>
    <contour>
      <point x="718" y="1318" type="line"/>
      <point x="531" y="1318" type="line"/>
      <point x="478" y="1026" type="line"/>
      <point x="666" y="1026" type="line"/>
    </contour>
    <contour>
      <point x="543" y="46" type="line"/>
      <point x="355" y="46" type="line"/>
      <point x="302" y="-245" type="line"/>
      <point x="490" y="-245" type="line"/>
    </contour>
    <component base="c" xOffset="35"/>
  </outline>
</glyph>
<glyph name="uhorn" format="1">
  <advance width="1064"/>
  <unicode hex="01B0"/>
  <outline>
    <contour>
      <point x="1052" y="1182" type="line"/>
      <point x="1035" y="1014"/>
      <point x="979" y="924"/>
      <point x="828" y="925" type="curve"/>
      <point x="819" y="784" type="line"/>
      <point x="1064" y="791"/>
      <point x="1210" y="898"/>
      <point x="1212" y="1183" type="curve"/>
    </contour>
    <component base="u"/>
    <contour>
      <point x="585" y="1269" type="move" name="top"/>
    </contour>
    <contour>
      <point x="809" y="0" type="move" name="right"/>
    </contour>
    <contour>
      <point x="1141" y="1269" type="move" name="top0315"/>
    </contour>
    <contour>
      <point x="297" y="0" type="move" name="bottomu"/>
    </contour>
    <contour>
      <point x="404" y="0" type="move" name="bottom"/>
    </contour>
  </outline>
</glyph>
<glyph name="uni024F" format="1">
  <advance width="1052"/>
  <unicode hex="024F"/>
  <outline>
    <contour>
      <point x="1025" y="745" type="line"/>
      <point x="76" y="745" type="line"/>
      <point x="49" y="584" type="line"/>
      <point x="998" y="584" type="line"/>
    </contour>
    <component base="y" xOffset="77"/>
    <contour>
      <point x="628" y="1290" type="move" name="top"/>
    </contour>
    <contour>
      <point x="691" y="-92" type="move" name="bottom"/>
    </contour>
    <contour>
      <point x="1132" y="1290" type="move" name="top0315"/>
    </contour>
  </outline>
</glyph>
<glyph name="henghook" format="1">
  <advance width="984"/>
  <unicode hex="0267"/>
  <outline>
    <contour>
      <point x="521" y="116" type="line"/>
      <point x="493" y="-77" type="line" smooth="yes"/>
      <point x="475" y="-175"/>
      <point x="399" y="-218"/>
      <point x="329" y="-215" type="curve" smooth="yes"/>
      <point x="310" y="-214"/>
      <point x="290" y="-210"/>
      <point x="270" y="-205" type="curve"/>
      <point x="254" y="-422" type="line"/>
      <point x="307" y="-432"/>
      <point x="360" y="-437"/>
      <point x="413" y="-438" type="curve" smooth="yes"/>
      <point x="629" y="-442"/>
      <point x="770" y="-332"/>
      <point x="803" y="-77" type="curve" smooth="yes"/>
      <point x="828" y="116" type="line"/>
    </contour>
    <component base="hhook"/>
    <contour>
      <point x="691" y="1700" type="move" name="top"/>
    </contour>
    <contour>
      <point x="348" y="-447" type="move" name="bottom"/>
    </contour>
    <contour>
      <point x="1124" y="1700" type="move" name="top0315"/>
    </contour>
  </outline>
</glyph>
<glyph name="nlfthook" format="1">
  <advance width="1121"/>
  <unicode hex="0272"/>
  <outline>
    <contour>
      <point x="169" y="216" type="line"/>
      <point x="123" y="-77" type="line" smooth="yes"/>
      <point x="106" y="-176"/>
      <point x="29" y="-218"/>
      <point x="-41" y="-215" type="curve" smooth="yes"/>
      <point x="-61" y="-214"/>
      <point x="-80" y="-210"/>
      <point x="-100" y="-205" type="curve"/>
      <point x="-116" y="-422" type="line"/>
      <point x="-63" y="-432"/>
      <point x="-10" y="-438"/>
      <point x="43" y="-439" type="curve" smooth="yes"/>
      <point x="259" y="-443"/>
      <point x="410" y="-334"/>
      <point x="435" y="-77" type="curve" smooth="yes"/>
      <point x="474" y="216" type="line"/>
    </contour>
    <component base="n" xOffset="140"/>
    <contour>
      <point x="738" y="1290" type="move" name="top"/>
    </contour>
    <contour>
      <point x="486" y="-447" type="move" name="bottom"/>
    </contour>
    <contour>
      <point x="1201" y="1290" type="move" name="top0315"/>
    </contour>
  </outline>
</glyph>
<glyph name="bullseye" format="1">
  <advance width="1200"/>
  <unicode hex="0298"/>
  <outline>
    <contour>
      <point x="450" y="726" type="curve" smooth="yes"/>
      <point x="454" y="629"/>
      <point x="528" y="560"/>
      <point x="619" y="562" type="curve" smooth="yes"/>
      <point x="713" y="563"/>
      <point x="784" y="638"/>
      <point x="781" y="738" type="curve" smooth="yes"/>
      <point x="777" y="835"/>
      <point x="703" y="904"/>
      <point x="612" y="902" type="curve" smooth="yes"/>
      <point x="518" y="901"/>
      <point x="446" y="826"/>
    </contour>
    <component base="O"/>
    <contour>
      <point x="746" y="1633" type="move" name="top"/>
    </contour>
    <contour>
      <point x="509" y="0" type="move" name="bottom"/>
    </contour>
    <contour>
      <point x="1330" y="1633" type="move" name="top0315"/>
    </contour>
  </outline>
</glyph>
<glyph name="dzcurl" format="1">
  <advance width="2002"/>
  <unicode hex="02A5"/>
  <outline>
    <contour>
      <point x="1000" y="-129" type="line"/>
      <point x="1162" y="-271" type="line"/>
      <point x="1499" y="175" type="line" smooth="yes"/>
      <point x="1526" y="229"/>
      <point x="1616" y="435"/>
      <point x="1679" y="424" type="curve" smooth="yes"/>
      <point x="1700" y="419"/>
      <point x="1701" y="395"/>
      <point x="1698" y="360" type="curve" smooth="yes"/>
      <point x="1691" y="291"/>
      <point x="1640" y="264"/>
      <point x="1595" y="260" type="curve" smooth="yes"/>
      <point x="1185" y="260" type="line"/>
      <point x="1140" y="0" type="line"/>
      <point x="1567" y="0" type="line" smooth="yes"/>
      <point x="1764" y="-3"/>
      <point x="1917" y="137"/>
      <point x="1923" y="361" type="curve" smooth="yes"/>
      <point x="1927" y="514"/>
      <point x="1868" y="627"/>
      <point x="1727" y="632" type="curve" smooth="yes"/>
      <point x="1516" y="640"/>
      <point x="1361" y="319"/>
      <point x="1239" y="161" type="curve" smooth="yes"/>
    </contour>
    <contour>
      <point x="1592" y="260" type="line"/>
      <point x="923" y="260" type="line"/>
      <point x="879" y="0" type="line"/>
      <point x="1548" y="0" type="line"/>
    </contour>
    <contour>
      <point x="1682" y="884" type="line"/>
      <point x="1715" y="1082" type="line"/>
      <point x="1505" y="1082" type="line"/>
      <point x="838" y="204" type="line"/>
      <point x="804" y="0" type="line"/>
      <point x="1014" y="0" type="line"/>
    </contour>
    <contour>
      <point x="1614" y="1082" type="line"/>
      <point x="886" y="1082" type="line"/>
      <point x="842" y="822" type="line"/>
      <point x="1570" y="822" type="line"/>
    </contour>
    <component base="d"/>
    <contour>
      <point x="1381" y="1600" type="move" name="top"/>
    </contour>
    <contour>
      <point x="1085" y="-447" type="move" name="bottom"/>
    </contour>
    <contour>
      <point x="2127" y="1600" type="move" name="top0315"/>
    </contour>
  </outline>
</glyph>
<glyph name="tesh" format="1">
  <advance width="1155"/>
  <unicode hex="02A7"/>
  <outline>
    <contour>
      <point x="819" y="1082" type="line"/>
      <point x="96" y="1082" type="line"/>
      <point x="56" y="848" type="line"/>
      <point x="779" y="848" type="line"/>
    </contour>
    <contour>
      <point x="243" y="1351" type="line"/>
      <point x="103" y="351" type="line"/>
      <point x="85" y="139"/>
      <point x="151" y="-14"/>
      <point x="351" y="-18" type="curve" smooth="yes"/>
      <point x="435" y="-20"/>
      <point x="530" y="-7"/>
      <point x="609" y="27" type="curve"/>
      <point x="631" y="271" type="line"/>
      <point x="575" y="259"/>
      <point x="517" y="244"/>
      <point x="460" y="247" type="curve" smooth="yes"/>
      <point x="414" y="249"/>
      <point x="402" y="285"/>
      <point x="407" y="351" type="curve"/>
      <point x="548" y="1351" type="line"/>
    </contour>
    <component base="esh" xOffset="423"/>
    <contour>
      <point x="701" y="1700" type="move" name="top"/>
    </contour>
    <contour>
      <point x="389" y="-447" type="move" name="bottom"/>
    </contour>
    <contour>
      <point x="1295" y="1700" type="move" name="top0315"/>
    </contour>
  </outline>
</glyph>
<glyph name="uni034A" format="1">
  <advance width="0"/>
  <unicode hex="034A"/>
  <outline>
    <contour>
      <point x="-299" y="1599" type="line"/>
      <point x="-387" y="1421" type="line"/>
      <point x="-392" y="1383" type="line"/>
      <point x="-473" y="1230" type="line"/>
      <point x="-359" y="1161" type="line"/>
      <point x="-248" y="1375" type="line"/>
      <point x="-256" y="1414" type="line"/>
      <point x="-188" y="1528" type="line"/>
    </contour>
    <component base="tilde" xOffset="-882"/>
    <contour>
      <point x="-361" y="1251" type="move" name="_marktop"/>
    </contour>
    <contour>
      <point x="-296" y="1684" type="move" name="mkmktop"/>
    </contour>
  </outline>
</glyph>
<glyph name="Digamma" format="1">
  <advance width="945"/>
  <unicode hex="03DC"/>
  <outline>
    <contour>
      <point x="895" y="850" type="line"/>
      <point x="640" y="850" type="line"/>
      <point x="563" y="363" type="line"/>
      <point x="819" y="363" type="line"/>
    </contour>
    <component base="F"/>
  </outline>
</glyph>
<glyph name="uni0449" format="1">
  <advance width="1631"/>
  <unicode hex="0449"/>
  <outline>
    <contour>
      <point x="1514" y="258" type="line"/>
      <point x="1113" y="258" type="line"/>
      <point x="1070" y="0" type="line"/>
      <point x="1164" y="0" type="line"/>
      <point x="1116" y="-321" type="line"/>
      <point x="1404" y="-321" type="line"/>
    </contour>
    <component base="uni0448"/>
    <contour>
      <point x="779" y="1269" type="move" name="top"/>
    </contour>
    <contour>
      <point x="1708" y="1269" type="move" name="top0315"/>
    </contour>
  </outline>
</glyph>
<glyph name="uni0465" format="1">
  <advance width="1309"/>
  <unicode hex="0465"/>
  <outline>
    <contour>
      <point x="978" y="640" type="line"/>
      <point x="278" y="640" type="line"/>
      <point x="246" y="449" type="line"/>
      <point x="945" y="449" type="line"/>
    </contour>
    <component base="dotlessi" xOffset="-20"/>
    <component base="c" xOffset="400"/>
  </outline>
</glyph>
<glyph name="uni046C" format="1">
  <advance width="2039"/>
  <unicode hex="046C"/>
  <outline>
    <contour>
      <point x="1147" y="799" type="line"/>
      <point x="325" y="799" type="line"/>
      <point x="280" y="535" type="line"/>
      <point x="1102" y="535" type="line"/>
    </contour>
    <component base="I" xOffset="1"/>
    <component base="uni046A" xOffset="508"/>
  </outline>
</glyph>
<glyph name="uni047F" format="1">
  <advance width="1437"/>
  <unicode hex="047F"/>
  <outline>
    <contour>
      <point x="744" y="1315" type="line"/>
      <point x="726" y="1188" type="line"/>
      <point x="894" y="1188" type="line"/>
      <point x="913" y="1315" type="line"/>
      <point x="1187" y="1315" type="line"/>
      <point x="1205" y="1457" type="line"/>
      <point x="513" y="1457" type="line"/>
      <point x="489" y="1315" type="line"/>
    </contour>
    <component base="uni0461"/>
    <contour>
      <point x="890" y="1600" type="move" name="top"/>
    </contour>
    <contour>
      <point x="1562" y="1600" type="move" name="top0315"/>
    </contour>
  </outline>
</glyph>
<glyph name="uni048E" format="1">
  <advance width="1084"/>
  <unicode hex="048E"/>
  <outline>
    <contour>
      <point x="681" y="1009" type="line"/>
      <point x="596" y="937" type="line"/>
      <point x="724" y="703" type="line"/>
      <point x="792" y="633" type="line"/>
      <point x="924" y="403" type="line"/>
      <point x="1009" y="474" type="line"/>
      <point x="875" y="711" type="line"/>
      <point x="810" y="787" type="line"/>
    </contour>
    <component base="P" xOffset="2"/>
  </outline>
</glyph>
<glyph name="uni048F" format="1">
  <advance width="978"/>
  <unicode hex="048F"/>
  <outline>
    <contour>
      <point x="532" y="493" type="line"/>
      <point x="445" y="423" type="line"/>
      <point x="569" y="181" type="line"/>
      <point x="624" y="108" type="line"/>
      <point x="728" y="-87" type="line"/>
      <point x="816" y="-17" type="line"/>
      <point x="726" y="169" type="line"/>
      <point x="651" y="277" type="line"/>
    </contour>
    <component base="p"/>
  </outline>
</glyph>
<glyph name="uni0490" format="1">
  <advance width="974"/>
  <unicode hex="0490"/>
  <outline>
    <contour>
      <point x="1112" y="1844" type="line"/>
      <point x="806" y="1844" type="line"/>
      <point x="703" y="1185" type="line"/>
      <point x="1009" y="1185" type="line"/>
    </contour>
    <component base="Gamma" xOffset="1"/>
  </outline>
</glyph>
<glyph name="uni0491" format="1">
  <advance width="831"/>
  <unicode hex="0491"/>
  <outline>
    <contour>
      <point x="885" y="1399" type="line"/>
      <point x="579" y="1399" type="line"/>
      <point x="491" y="822" type="line"/>
      <point x="797" y="822" type="line"/>
    </contour>
    <component base="uni0433"/>
  </outline>
</glyph>
<glyph name="uni04A0" format="1">
  <advance width="1431"/>
  <unicode hex="04A0"/>
  <outline>
    <contour>
      <point x="644" y="1456" type="line"/>
      <point x="156" y="1456" type="line"/>
      <point x="111" y="1195" type="line"/>
      <point x="599" y="1195" type="line"/>
    </contour>
    <component base="K.alt" xOffset="313"/>
  </outline>
</glyph>
<glyph name="uni04A4" format="1">
  <advance width="1679"/>
  <unicode hex="04A4"/>
  <outline>
    <contour>
      <point x="1719" y="1456" type="line"/>
      <point x="974" y="1454" type="line"/>
      <point x="1178" y="1197" type="line"/>
      <point x="1674" y="1196" type="line"/>
    </contour>
    <component base="H"/>
  </outline>
</glyph>
<glyph name="uni04B9" format="1">
  <advance width="984"/>
  <unicode hex="04B9"/>
  <outline>
    <contour>
      <point x="602" y="841" type="line"/>
      <point x="444" y="841" type="line"/>
      <point x="389" y="511" type="line"/>
      <point x="392" y="429" type="line"/>
      <point x="341" y="160" type="line"/>
      <point x="498" y="160" type="line"/>
      <point x="545" y="407" type="line"/>
      <point x="547" y="508" type="line"/>
    </contour>
    <component base="uni0447" xOffset="5"/>
  </outline>
</glyph>
<glyph name="uni04BD" format="1">
  <advance width="1044"/>
  <unicode hex="04BD"/>
  <outline>
    <contour>
      <point x="-25" y="865" type="line"/>
      <point x="-29" y="633"/>
      <point x="53" y="444"/>
      <point x="283" y="438" type="curve"/>
      <point x="297" y="637" type="line"/>
      <point x="184" y="646"/>
      <point x="140" y="702"/>
      <point x="150" y="864" type="curve"/>
    </contour>
    <component base="e" xOffset="135"/>
    <contour>
      <point x="527" y="13" type="move" name="bottom"/>
    </contour>
  </outline>
</glyph>
<glyph name="uni0516" format="1">
  <advance width="1454"/>
  <unicode hex="0516"/>
  <outline>
    <contour>
      <point x="1576" y="1456" type="line"/>
      <point x="1172" y="1456" type="line"/>
      <point x="986" y="1092" type="line"/>
      <point x="1053" y="711" type="line"/>
    </contour>
    <contour>
      <point x="984" y="0" type="line"/>
      <point x="1345" y="0" type="line"/>
      <point x="1060" y="860" type="line"/>
      <point x="798" y="670" type="line"/>
    </contour>
    <component base="P"/>
  </outline>
</glyph>
<glyph name="uni0518" format="1">
  <advance width="1564"/>
  <unicode hex="0518"/>
  <outline>
    <contour>
      <point x="1480" y="270" type="line"/>
      <point x="862" y="270" type="line"/>
      <point x="816" y="0" type="line"/>
      <point x="1434" y="0" type="line"/>
    </contour>
    <contour>
      <point x="1484" y="878" type="line"/>
      <point x="947" y="878" type="line"/>
      <point x="903" y="617" type="line"/>
      <point x="1440" y="617" type="line"/>
    </contour>
    <contour>
      <point x="1648" y="1456" type="line"/>
      <point x="1029" y="1456" type="line"/>
      <point x="982" y="1185" type="line"/>
      <point x="1602" y="1185" type="line"/>
    </contour>
    <component base="uni042F" xOffset="94"/>
  </outline>
</glyph>
<glyph name="uni1D13" format="1">
  <advance width="1203"/>
  <unicode hex="1D13"/>
  <outline>
    <contour>
      <point x="98" y="946" type="line"/>
      <point x="72" y="791" type="line"/>
      <point x="1088" y="127" type="line"/>
      <point x="1114" y="282" type="line"/>
    </contour>
    <component base="uni1D11" xOffset="77"/>
  </outline>
</glyph>
<glyph name="uni1D6B" format="1">
  <advance width="1483"/>
  <unicode hex="1D6B"/>
  <outline>
    <contour>
      <point x="551" y="263" type="line"/>
      <point x="594" y="244" type="line"/>
      <point x="803" y="245" type="line"/>
      <point x="930" y="1082" type="line"/>
      <point x="662" y="1082" type="line"/>
    </contour>
    <contour>
      <point x="606" y="503" type="line"/>
      <point x="593" y="365"/>
      <point x="551" y="230"/>
      <point x="430" y="238" type="curve" smooth="yes"/>
      <point x="368" y="243"/>
      <point x="361" y="338"/>
      <point x="366" y="418" type="curve"/>
      <point x="460" y="1082" type="line"/>
      <point x="155" y="1082" type="line"/>
      <point x="62" y="422" type="line"/>
      <point x="45" y="203"/>
      <point x="110" y="-14"/>
      <point x="317" y="-21" type="curve" smooth="yes"/>
      <point x="571" y="-28"/>
      <point x="682" y="246"/>
      <point x="695" y="507" type="curve"/>
    </contour>
    <component base="e" xOffset="531"/>
    <contour>
      <point x="774" y="1290" type="move" name="top"/>
    </contour>
    <contour>
      <point x="586" y="0" type="move" name="bottom"/>
    </contour>
    <contour>
      <point x="1563" y="1290" type="move" name="top0315"/>
    </contour>
  </outline>
</glyph>
<glyph name="uni1D6F" format="1">
  <advance width="1786"/>
  <unicode hex="1D6F"/>
  <outline>
    <contour>
      <point x="1597" y="693" type="line"/>
      <point x="1558" y="619"/>
      <point x="1502" y="584"/>
      <point x="1435" y="582" type="curve" smooth="yes"/>
      <point x="1060" y="577"/>
      <point x="687" y="672"/>
      <point x="313" y="672" type="curve" smooth="yes"/>
      <point x="183" y="672"/>
      <point x="37" y="598"/>
      <point x="10" y="435" type="curve"/>
      <point x="170" y="387" type="line"/>
      <point x="208" y="478"/>
      <point x="282" y="498"/>
      <point x="358" y="498" type="curve" smooth="yes"/>
      <point x="693" y="498"/>
      <point x="1027" y="411"/>
      <point x="1362" y="409" type="curve" smooth="yes"/>
      <point x="1526" y="408"/>
      <point x="1698" y="449"/>
      <point x="1755" y="645" type="curve"/>
    </contour>
    <component base="m" xOffset="160"/>
    <contour>
      <point x="1000" y="1290" type="move" name="top"/>
    </contour>
    <contour>
      <point x="812" y="0" type="move" name="bottom"/>
    </contour>
    <contour>
      <point x="1866" y="1290" type="move" name="top0315"/>
    </contour>
  </outline>
</glyph>
<glyph name="uni1D7F" format="1">
  <advance width="1134"/>
  <unicode hex="1D7F"/>
  <outline>
    <contour>
      <point x="1103" y="664" type="line"/>
      <point x="53" y="664" type="line"/>
      <point x="20" y="473" type="line"/>
      <point x="1070" y="473" type="line"/>
    </contour>
    <component base="upsilonlatin" xOffset="21"/>
    <contour>
      <point x="665" y="1290" type="move" name="top"/>
    </contour>
    <contour>
      <point x="478" y="0" type="move" name="bottom"/>
    </contour>
    <contour>
      <point x="1214" y="1290" type="move" name="top0315"/>
    </contour>
  </outline>
</glyph>
<glyph name="uni1D83" format="1">
  <advance width="1359"/>
  <unicode hex="1D83"/>
  <outline>
    <contour>
      <point x="781" y="260" type="line"/>
      <point x="737" y="0" type="line"/>
      <point x="1042" y="0" type="line"/>
      <point x="1030" y="-59" type="line" smooth="yes"/>
      <point x="1007" y="-156"/>
      <point x="932" y="-197"/>
      <point x="862" y="-194" type="curve" smooth="yes"/>
      <point x="842" y="-194"/>
      <point x="822" y="-189"/>
      <point x="803" y="-185" type="curve"/>
      <point x="786" y="-402" type="line"/>
      <point x="827" y="-412"/>
      <point x="868" y="-419"/>
      <point x="910" y="-419" type="curve" smooth="yes"/>
      <point x="1103" y="-419"/>
      <point x="1217" y="-269"/>
      <point x="1238" y="-56" type="curve" smooth="yes"/>
      <point x="1283" y="260" type="line"/>
    </contour>
    <component base="g"/>
    <contour>
      <point x="571" y="1290" type="move" name="top"/>
    </contour>
    <contour>
      <point x="319" y="-447" type="move" name="bottom"/>
    </contour>
    <contour>
      <point x="1440" y="1290" type="move" name="top0315"/>
    </contour>
  </outline>
</glyph>
<glyph name="uni1D87" format="1">
  <advance width="1096"/>
  <unicode hex="1D87"/>
  <outline>
    <contour>
      <point x="806" y="260" type="line"/>
      <point x="756" y="-57" type="line" smooth="yes"/>
      <point x="738" y="-156"/>
      <point x="661" y="-198"/>
      <point x="592" y="-195" type="curve" smooth="yes"/>
      <point x="572" y="-194"/>
      <point x="552" y="-190"/>
      <point x="532" y="-185" type="curve"/>
      <point x="516" y="-402" type="line"/>
      <point x="557" y="-412"/>
      <point x="598" y="-419"/>
      <point x="640" y="-419" type="curve" smooth="yes"/>
      <point x="835" y="-421"/>
      <point x="948" y="-270"/>
      <point x="968" y="-56" type="curve" smooth="yes"/>
      <point x="1014" y="260" type="line"/>
    </contour>
    <component base="n" xOffset="5"/>
    <contour>
      <point x="590" y="1290" type="move" name="top"/>
    </contour>
    <contour>
      <point x="338" y="-447" type="move" name="bottom"/>
    </contour>
    <contour>
      <point x="1176" y="1290" type="move" name="top0315"/>
    </contour>
  </outline>
</glyph>
<glyph name="uni1D89" format="1">
  <advance width="678"/>
  <unicode hex="1D89"/>
  <outline>
    <contour>
      <point x="296" y="260" type="line"/>
      <point x="246" y="-57" type="line" smooth="yes"/>
      <point x="229" y="-156"/>
      <point x="152" y="-198"/>
      <point x="82" y="-195" type="curve" smooth="yes"/>
      <point x="62" y="-194"/>
      <point x="43" y="-190"/>
      <point x="23" y="-185" type="curve"/>
      <point x="7" y="-402" type="line"/>
      <point x="48" y="-412"/>
      <point x="89" y="-419"/>
      <point x="131" y="-419" type="curve" smooth="yes"/>
      <point x="326" y="-420"/>
      <point x="437" y="-270"/>
      <point x="458" y="-56" type="curve" smooth="yes"/>
      <point x="504" y="260" type="line"/>
    </contour>
    <component base="r"/>
    <contour>
      <point x="456" y="1290" type="move" name="top"/>
    </contour>
    <contour>
      <point x="101" y="-447" type="move" name="bottom"/>
    </contour>
    <contour>
      <point x="758" y="1290" type="move" name="top0315"/>
    </contour>
  </outline>
</glyph>
<glyph name="uni1D8C" format="1">
  <advance width="908"/>
  <unicode hex="1D8C"/>
  <outline>
    <contour>
      <point x="480" y="260" type="line"/>
      <point x="434" y="0" type="line"/>
      <point x="546" y="0" type="line"/>
      <point x="534" y="-58" type="line" smooth="yes"/>
      <point x="511" y="-156"/>
      <point x="435" y="-196"/>
      <point x="365" y="-194" type="curve" smooth="yes"/>
      <point x="346" y="-193"/>
      <point x="326" y="-189"/>
      <point x="307" y="-184" type="curve"/>
      <point x="290" y="-402" type="line"/>
      <point x="332" y="-412"/>
      <point x="372" y="-419"/>
      <point x="414" y="-419" type="curve" smooth="yes"/>
      <point x="608" y="-420"/>
      <point x="721" y="-269"/>
      <point x="742" y="-56" type="curve" smooth="yes"/>
      <point x="788" y="260" type="line"/>
    </contour>
    <component base="v" xOffset="-2"/>
    <contour>
      <point x="555" y="1290" type="move" name="top"/>
    </contour>
    <contour>
      <point x="303" y="-447" type="move" name="bottom"/>
    </contour>
    <contour>
      <point x="988" y="1290" type="move" name="top0315"/>
    </contour>
  </outline>
</glyph>
<glyph name="uni1D91" format="1">
  <advance width="1099"/>
  <unicode hex="1D91"/>
  <outline>
    <contour>
      <point x="531" y="260" type="line"/>
      <point x="493" y="-57" type="line"/>
      <point x="477" y="-296"/>
      <point x="620" y="-411"/>
      <point x="814" y="-415" type="curve" smooth="yes"/>
      <point x="859" y="-416"/>
      <point x="905" y="-413"/>
      <point x="950" y="-403" type="curve"/>
      <point x="968" y="-183" type="line"/>
      <point x="946" y="-186"/>
      <point x="923" y="-190"/>
      <point x="901" y="-189" type="curve" smooth="yes"/>
      <point x="844" y="-187"/>
      <point x="788" y="-148"/>
      <point x="795" y="-60" type="curve"/>
      <point x="838" y="260" type="line"/>
    </contour>
    <component base="dhook" xOffset="-9"/>
    <contour>
      <point x="547" y="1600" type="move" name="top"/>
    </contour>
    <contour>
      <point x="249" y="-447" type="move" name="bottom"/>
    </contour>
    <contour>
      <point x="1224" y="1600" type="move" name="top0315"/>
    </contour>
  </outline>
</glyph>
<glyph name="uni1DA7" format="1">
  <advance width="548"/>
  <unicode hex="1DA7"/>
  <outline>
    <contour>
      <point x="589" y="1235" type="line"/>
      <point x="150" y="1235" type="line"/>
      <point x="121" y="1062" type="line"/>
      <point x="560" y="1062" type="line"/>
    </contour>
    <component base="uni1DA6"/>
  </outline>
</glyph>
<glyph name="uni1DD5" format="1">
  <advance width="0"/>
  <unicode hex="1DD5"/>
  <outline>
    <contour>
      <point x="-398" y="1494" type="line"/>
      <point x="-244" y="1492" type="line"/>
      <point x="-242" y="1565" type="line"/>
      <point x="-243" y="1691"/>
      <point x="-327" y="1763"/>
      <point x="-430" y="1764" type="curve" smooth="yes"/>
      <point x="-532" y="1765"/>
      <point x="-622" y="1708"/>
      <point x="-625" y="1583" type="curve"/>
      <point x="-463" y="1583" type="line"/>
      <point x="-453" y="1618"/>
      <point x="-446" y="1639"/>
      <point x="-418" y="1638" type="curve" smooth="yes"/>
      <point x="-390" y="1638"/>
      <point x="-389" y="1607"/>
      <point x="-390" y="1570" type="curve"/>
    </contour>
    <contour>
      <point x="-387" y="1540" type="line"/>
      <point x="-447" y="1540" type="line" smooth="yes"/>
      <point x="-552" y="1537"/>
      <point x="-674" y="1500"/>
      <point x="-668" y="1351" type="curve" smooth="yes"/>
      <point x="-663" y="1254"/>
      <point x="-602" y="1188"/>
      <point x="-519" y="1189" type="curve" smooth="yes"/>
      <point x="-456" y="1190"/>
      <point x="-391" y="1244"/>
      <point x="-356" y="1336" type="curve"/>
      <point x="-381" y="1420" type="line"/>
      <point x="-409" y="1361"/>
      <point x="-454" y="1310"/>
      <point x="-489" y="1312" type="curve" smooth="yes"/>
      <point x="-506" y="1313"/>
      <point x="-515" y="1330"/>
      <point x="-513" y="1358" type="curve" smooth="yes"/>
      <point x="-509" y="1416"/>
      <point x="-471" y="1444"/>
      <point x="-433" y="1447" type="curve"/>
      <point x="-389" y="1446" type="line"/>
    </contour>
    <component base="uni0366" xOffset="148"/>
    <contour>
      <point x="-354" y="1170" type="move" name="_marktop"/>
    </contour>
  </outline>
</glyph>
<glyph name="uni1EE9" format="1">
  <advance width="1072"/>
  <unicode hex="1EE9"/>
  <outline>
    <component base="uhorn"/>
    <component base="acute" xOffset="255" yOffset="-21"/>
    <contour>
      <point x="585" y="1269" type="move" name="parent_top"/>
    </contour>
    <contour>
      <point x="1141" y="1269" type="move" name="top0315"/>
    </contour>
    <contour>
      <point x="404" y="0" type="move" name="bottom"/>
    </contour>
    <contour>
      <point x="644" y="1649" type="move" name="top"/>
    </contour>
  </outline>
</glyph>
<glyph name="uni2C69" format="1">
  <advance width="1204"/>
  <unicode hex="2C69"/>
  <outline>
    <contour>
      <point x="1143" y="270" type="line"/>
      <point x="792" y="270" type="line"/>
      <point x="801" y="129" type="line"/>
      <point x="726" y="-358" type="line"/>
      <point x="1045" y="-358" type="line"/>
    </contour>
    <component base="K"/>
  </outline>
</glyph>
<glyph name="uni2C6A" format="1">
  <advance width="1080"/>
  <unicode hex="2C6A"/>
  <outline>
    <contour>
      <point x="615" y="259" type="line"/>
      <point x="659" y="0" type="line"/>
      <point x="606" y="-328" type="line"/>
      <point x="912" y="-328" type="line"/>
      <point x="1004" y="260" type="line"/>
    </contour>
    <component base="k"/>
  </outline>
</glyph>
<glyph name="uni2C7E" format="1">
  <advance width="1089"/>
  <unicode hex="2C7E"/>
  <outline>
    <contour>
      <point x="81" y="251" type="line"/>
      <point x="192" y="-2"/>
      <point x="348" y="-432"/>
      <point x="648" y="-436" type="curve" smooth="yes"/>
      <point x="695" y="-437"/>
      <point x="746" y="-432"/>
      <point x="790" y="-412" type="curve"/>
      <point x="814" y="-148" type="line"/>
      <point x="770" y="-156"/>
      <point x="727" y="-162"/>
      <point x="684" y="-160" type="curve" smooth="yes"/>
      <point x="504" y="-154"/>
      <point x="425" y="118"/>
      <point x="375" y="286" type="curve"/>
    </contour>
    <component base="S" xOffset="-2"/>
  </outline>
</glyph>
<glyph name="uni2DF4" format="1">
  <advance width="0"/>
  <unicode hex="2DF4"/>
  <outline>
    <contour>
      <point x="-160" y="1537" type="line"/>
      <point x="-463" y="1537" type="line"/>
      <point x="-486" y="1405" type="line"/>
      <point x="-183" y="1405" type="line"/>
    </contour>
    <component base="uni0366" xOffset="-1"/>
    <contour>
      <point x="-368" y="1170" type="move" name="_marktop"/>
    </contour>
  </outline>
</glyph>
<glyph name="uni2E13" format="1">
  <advance width="1098"/>
  <unicode hex="2E13"/>
  <outline>
    <contour>
      <point x="1146" y="1482" type="line"/>
      <point x="1009" y="1579" type="line"/>
      <point x="30" y="228" type="line"/>
      <point x="167" y="131" type="line"/>
    </contour>
    <component base="dotbelow" xOffset="1046" yOffset="1274"/>
    <component base="dotbelow" xOffset="1527" yOffset="834"/>
  </outline>
</glyph>
<glyph name="uniA652" format="1">
  <advance width="1494"/>
  <unicode hex="A652"/>
  <outline>
    <contour>
      <point x="1154" y="1333" type="line"/>
      <point x="329" y="1333" type="line"/>
      <point x="284" y="1067" type="line"/>
      <point x="1109" y="1067" type="line"/>
    </contour>
    <component base="I" xOffset="-14"/>
    <component base="uni042C" xOffset="391"/>
  </outline>
</glyph>
<glyph name="uniA667" format="1">
  <advance width="1588"/>
  <unicode hex="A667"/>
  <outline>
    <contour>
      <point x="1630" y="1082" type="line"/>
      <point x="988" y="1082" type="line"/>
      <point x="944" y="822" type="line"/>
      <point x="1585" y="822" type="line"/>
    </contour>
    <component base="uni043C" xOffset="-19"/>
  </outline>
</glyph>
<glyph name="uniA66A" format="1">
  <advance width="1439"/>
  <unicode hex="A66A"/>
  <outline>
    <contour>
      <point x="1386" y="765" type="line" smooth="yes"/>
      <point x="1426" y="1192"/>
      <point x="1197" y="1471"/>
      <point x="826" y="1476" type="curve" smooth="yes"/>
      <point x="435" y="1482"/>
      <point x="140" y="1204"/>
      <point x="92" y="758" type="curve" smooth="yes"/>
      <point x="90" y="694" type="line" smooth="yes"/>
      <point x="50" y="266"/>
      <point x="278" y="-15"/>
      <point x="651" y="-20" type="curve" smooth="yes"/>
      <point x="1044" y="-26"/>
      <point x="1337" y="255"/>
      <point x="1385" y="703" type="curve" smooth="yes"/>
    </contour>
    <contour>
      <point x="1061" y="704" type="line" smooth="yes"/>
      <point x="1032" y="434"/>
      <point x="892" y="246"/>
      <point x="663" y="254" type="curve" smooth="yes"/>
      <point x="446" y="260"/>
      <point x="390" y="453"/>
      <point x="413" y="696" type="curve" smooth="yes"/>
      <point x="415" y="761" type="line" smooth="yes"/>
      <point x="446" y="1030"/>
      <point x="587" y="1209"/>
      <point x="814" y="1202" type="curve" smooth="yes"/>
      <point x="1028" y="1195"/>
      <point x="1085" y="1010"/>
      <point x="1063" y="768" type="curve" smooth="yes"/>
    </contour>
    <component base="dotnosp" xOffset="917" yOffset="-629"/>
    <component base="dotnosp" xOffset="1249" yOffset="-629"/>
  </outline>
</glyph>
<glyph name="uniA716" format="1">
  <advance width="802"/>
  <unicode hex="A716"/>
  <outline>
    <contour>
      <point x="604" y="-270" type="line"/>
      <point x="633" y="-98" type="line"/>
      <point x="115" y="-98" type="line"/>
      <point x="86" y="-270" type="line"/>
    </contour>
    <component base="bar" xOffset="-30"/>
  </outline>
</glyph>
<glyph name="uniA736" format="1">
  <advance width="1810"/>
  <unicode hex="A736"/>
  <outline>
    <contour>
      <point x="953" y="1279" type="line"/>
      <point x="926" y="1456" type="line"/>
      <point x="731" y="1456" type="line"/>
      <point x="-74" y="0" type="line"/>
      <point x="298" y="0" type="line"/>
    </contour>
    <contour>
      <point x="929" y="599" type="line"/>
      <point x="297" y="599" type="line"/>
      <point x="251" y="329" type="line"/>
      <point x="883" y="329" type="line"/>
    </contour>
    <component base="U" xOffset="665"/>
  </outline>
</glyph>
<glyph name="uniA743" format="1">
  <advance width="995"/>
  <unicode hex="A743"/>
  <outline>
    <contour>
      <point x="875" y="558" type="line"/>
      <point x="339" y="219" type="line"/>
      <point x="406" y="39" type="line"/>
      <point x="942" y="378" type="line"/>
    </contour>
    <component base="k"/>
  </outline>
</glyph>
<glyph name="uniA794" format="1">
  <advance width="913"/>
  <unicode hex="A794"/>
  <outline>
    <contour>
      <point x="624" y="386" type="line"/>
      <point x="559" y="-57" type="line" smooth="yes"/>
      <point x="542" y="-155"/>
      <point x="464" y="-197"/>
      <point x="395" y="-195" type="curve" smooth="yes"/>
      <point x="375" y="-194"/>
      <point x="355" y="-190"/>
      <point x="336" y="-185" type="curve"/>
      <point x="320" y="-402" type="line"/>
      <point x="361" y="-412"/>
      <point x="401" y="-419"/>
      <point x="443" y="-419" type="curve" smooth="yes"/>
      <point x="638" y="-420"/>
      <point x="750" y="-269"/>
      <point x="771" y="-56" type="curve" smooth="yes"/>
      <point x="831" y="386" type="line"/>
    </contour>
    <component base="c" xOffset="1"/>
  </outline>
</glyph>
<glyph name="uniA795" format="1">
  <advance width="1127"/>
  <unicode hex="A795"/>
  <outline>
    <contour>
      <point x="769" y="282" type="line"/>
      <point x="723" y="-15" type="line" smooth="yes"/>
      <point x="710" y="-109"/>
      <point x="664" y="-180"/>
      <point x="588" y="-178" type="curve" smooth="yes"/>
      <point x="563" y="-177"/>
      <point x="538" y="-171"/>
      <point x="513" y="-165" type="curve"/>
      <point x="491" y="-421" type="line"/>
      <point x="539" y="-432"/>
      <point x="587" y="-440"/>
      <point x="636" y="-440" type="curve" smooth="yes"/>
      <point x="870" y="-443"/>
      <point x="1006" y="-264"/>
      <point x="1033" y="-14" type="curve" smooth="yes"/>
      <point x="1076" y="282" type="line"/>
    </contour>
    <component base="h"/>
  </outline>
</glyph>
<glyph name="uniA796" format="1">
  <advance width="1439"/>
  <unicode hex="A796"/>
  <outline>
    <contour>
      <point x="664" y="850" type="line"/>
      <point x="427" y="851" type="line" smooth="yes"/>
      <point x="203" y="852"/>
      <point x="48" y="719"/>
      <point x="29" y="455" type="curve" smooth="yes"/>
      <point x="24" y="385"/>
      <point x="24" y="312"/>
      <point x="38" y="242" type="curve"/>
      <point x="271" y="242" type="line"/>
      <point x="269" y="293"/>
      <point x="270" y="344"/>
      <point x="276" y="395" type="curve" smooth="yes"/>
      <point x="287" y="509"/>
      <point x="322" y="620"/>
      <point x="423" y="623" type="curve" smooth="yes"/>
      <point x="624" y="620" type="line"/>
    </contour>
    <component base="B" xOffset="311"/>
  </outline>
</glyph>
<glyph name="uniA7A2" format="1">
  <advance width="1228"/>
  <unicode hex="A7A2"/>
  <outline>
    <contour>
      <point x="1227" y="658" type="line"/>
      <point x="-14" y="290" type="line"/>
      <point x="-48" y="102" type="line"/>
      <point x="1193" y="471" type="line"/>
    </contour>
    <component base="K" xOffset="79"/>
  </outline>
</glyph>
<glyph name="uniA7A4" format="1">
  <advance width="1392"/>
  <unicode hex="A7A4"/>
  <outline>
    <contour>
      <point x="1429" y="1037" type="line"/>
      <point x="36" y="610" type="line"/>
      <point x="2" y="422" type="line"/>
      <point x="1395" y="850" type="line"/>
    </contour>
    <component base="N" xOffset="85"/>
  </outline>
</glyph>
<glyph name="uniA7A6" format="1">
  <advance width="1237"/>
  <unicode hex="A7A6"/>
  <outline>
    <contour>
      <point x="1306" y="1268" type="line"/>
      <point x="75" y="890" type="line"/>
      <point x="42" y="712" type="line"/>
      <point x="1273" y="1091" type="line"/>
    </contour>
    <component base="R" xOffset="80"/>
  </outline>
</glyph>
<glyph name="uniAB43" format="1">
  <advance width="1430"/>
  <unicode hex="AB43"/>
  <outline>
    <contour>
      <point x="531" y="843" type="curve"/>
      <point x="557" y="1104" type="line"/>
      <point x="271" y="1096"/>
      <point x="83" y="880"/>
      <point x="53" y="549" type="curve" smooth="yes"/>
      <point x="52" y="527" type="line" smooth="yes"/>
      <point x="30" y="237"/>
      <point x="157" y="-14"/>
      <point x="422" y="-19" type="curve" smooth="yes"/>
      <point x="525" y="-21"/>
      <point x="632" y="16"/>
      <point x="707" y="101" type="curve"/>
      <point x="549" y="308" type="line"/>
      <point x="516" y="273"/>
      <point x="476" y="241"/>
      <point x="433" y="242" type="curve" smooth="yes"/>
      <point x="326" y="242"/>
      <point x="352" y="423"/>
      <point x="358" y="528" type="curve" smooth="yes"/>
      <point x="360" y="548" type="line" smooth="yes"/>
      <point x="373" y="691"/>
      <point x="410" y="839"/>
    </contour>
    <component base="o" xOffset="448"/>
  </outline>
</glyph>
<glyph name="uniAB5C" format="1">
  <advance width="781"/>
  <unicode hex="AB5C"/>
  <outline>
    <contour>
      <point x="484" y="650" type="line" smooth="yes"/>
      <point x="471" y="581"/>
      <point x="425" y="542"/>
      <point x="363" y="543" type="curve" smooth="yes"/>
      <point x="348" y="543"/>
      <point x="334" y="548"/>
      <point x="320" y="552" type="curve"/>
      <point x="305" y="350" type="line"/>
      <point x="351" y="344"/>
      <point x="398" y="339"/>
      <point x="446" y="338" type="curve" smooth="yes"/>
      <point x="618" y="337"/>
      <point x="681" y="448"/>
      <point x="697" y="622" type="curve" smooth="yes"/>
      <point x="719" y="855" type="line"/>
      <point x="510" y="855" type="line"/>
    </contour>
    <component base="hsuper" xOffset="4"/>
  </outline>
</glyph>
<glyph name="eng_uni1ABE" format="1">
  <advance width="1141"/>
  <outline>
    <contour>
      <point x="208" y="-521" type="curve"/>
      <point x="229" y="-444" type="line"/>
      <point x="185" y="-418"/>
      <point x="154" y="-388"/>
      <point x="162" y="-320" type="curve" smooth="yes"/>
      <point x="170" y="-248"/>
      <point x="216" y="-208"/>
      <point x="264" y="-181" type="curve"/>
      <point x="246" y="-96" type="line"/>
      <point x="154" y="-124"/>
      <point x="63" y="-194"/>
      <point x="65" y="-318" type="curve" smooth="yes"/>
      <point x="66" y="-418"/>
      <point x="131" y="-493"/>
    </contour>
    <contour>
      <point x="814" y="-529" type="line"/>
      <point x="905" y="-497"/>
      <point x="989" y="-425"/>
      <point x="986" y="-303" type="curve" smooth="yes"/>
      <point x="984" y="-202"/>
      <point x="919" y="-128"/>
      <point x="841" y="-101" type="curve"/>
      <point x="820" y="-177" type="line"/>
      <point x="862" y="-203"/>
      <point x="895" y="-230"/>
      <point x="888" y="-298" type="curve" smooth="yes"/>
      <point x="880" y="-369"/>
      <point x="838" y="-412"/>
      <point x="789" y="-438" type="curve"/>
    </contour>
    <component base="eng"/>
    <contour>
      <point x="588" y="1290" type="move" name="top"/>
    </contour>
    <contour>
      <point x="402" y="10" type="move" name="bottom"/>
    </contour>
    <contour>
      <point x="415" y="-310" type="move" name="cross"/>
    </contour>
    <contour>
      <point x="402" y="10" type="move" name="markbottom"/>
    </contour>
    <contour>
      <point x="1156" y="1290" type="move" name="top0315"/>
    </contour>
  </outline>
</glyph>
<glyph name="rrthook_uni1ABE" format="1">
  <advance width="1003"/>
  <outline>
    <contour>
      <point x="36" y="-521" type="curve"/>
      <point x="57" y="-444" type="line"/>
      <point x="13" y="-418"/>
      <point x="-18" y="-388"/>
      <point x="-11" y="-320" type="curve" smooth="yes"/>
      <point x="-3" y="-249"/>
      <point x="44" y="-208"/>
      <point x="92" y="-181" type="curve"/>
      <point x="74" y="-96" type="line"/>
      <point x="-18" y="-125"/>
      <point x="-109" y="-195"/>
      <point x="-107" y="-319" type="curve" smooth="yes"/>
      <point x="-106" y="-419"/>
      <point x="-41" y="-493"/>
    </contour>
    <contour>
      <point x="677" y="-529" type="line"/>
      <point x="767" y="-497"/>
      <point x="853" y="-426"/>
      <point x="850" y="-304" type="curve" smooth="yes"/>
      <point x="848" y="-203"/>
      <point x="781" y="-128"/>
      <point x="704" y="-101" type="curve"/>
      <point x="682" y="-177" type="line"/>
      <point x="725" y="-203"/>
      <point x="758" y="-231"/>
      <point x="751" y="-298" type="curve" smooth="yes"/>
      <point x="743" y="-369"/>
      <point x="701" y="-412"/>
      <point x="652" y="-438" type="curve"/>
    </contour>
    <component base="rrthook" xOffset="144"/>
    <contour>
      <point x="553" y="-310" type="move" name="cross"/>
    </contour>
  </outline>
</glyph>
<glyph name="uni0429.smcp" format="1">
  <advance width="1687"/>
  <outline>
    <contour>
      <point x="1573" y="260" type="line"/>
      <point x="1177" y="260" type="line"/>
      <point x="1133" y="0" type="line"/>
      <point x="1223" y="0" type="line"/>
      <point x="1174" y="-331" type="line"/>
      <point x="1461" y="-331" type="line"/>
    </contour>
    <component base="uni0428.smcp"/>
  </outline>
</glyph>
<glyph name="uni0490.smcp" format="1">
  <advance width="838"/>
  <outline>
    <contour>
      <point x="932" y="1476" type="line"/>
      <point x="626" y="1476" type="line"/>
      <point x="536" y="905" type="line"/>
      <point x="843" y="905" type="line"/>
    </contour>
    <component base="Gamma.smcp" xOffset="-4"/>
  </outline>
</glyph>
